<?xml version="1.0" encoding="UTF-8" standalone="no"?><svg xmlns="http://www.w3.org/2000/svg" xmlns:xlink="http://www.w3.org/1999/xlink" contentScriptType="application/ecmascript" contentStyleType="text/css" height="428px" preserveAspectRatio="none" style="width:571px;height:428px;background:#FFFFFF;" version="1.1" viewBox="0 0 571 428" width="571px" zoomAndPan="magnify"><defs><filter height="300%" id="f14sl4mpms747k" width="300%" x="-1" y="-1"><feGaussianBlur result="blurOut" stdDeviation="2.0"/><feColorMatrix in="blurOut" result="blurOut2" type="matrix" values="0 0 0 0 0 0 0 0 0 0 0 0 0 0 0 0 0 0 .4 0"/><feOffset dx="4.0" dy="4.0" in="blurOut2" result="blurOut3"/><feBlend in="SourceGraphic" in2="blurOut3" mode="normal"/></filter></defs><g><!--MD5=[d9d6adadc1b98074ab894dec1a4e057e]
cluster Server1--><rect fill="#FFFFFF" filter="url(#f14sl4mpms747k)" height="409" style="stroke:#000000;stroke-width:1.5;" width="264" x="7" y="7"/><text fill="#000000" font-family="sans-serif" font-size="14" font-weight="bold" lengthAdjust="spacing" textLength="53" x="112.5" y="22.5352">Server1</text><!--MD5=[4915eaa5dd0c2e60382807b5b2444d45]
cluster Server2--><rect fill="#FFFFFF" filter="url(#f14sl4mpms747k)" height="409" style="stroke:#000000;stroke-width:1.5;" width="264" x="295" y="7"/><text fill="#000000" font-family="sans-serif" font-size="14" font-weight="bold" lengthAdjust="spacing" textLength="53" x="400.5" y="22.5352">Server2</text><!--MD5=[05e0e3a60e80b780b9a38a185784ac75]
entity tcp1_listen--><rect fill="#FEFECE" filter="url(#f14sl4mpms747k)" height="52.9766" style="stroke:#000000;stroke-width:1.5;" width="139" x="23.5" y="138"/><text fill="#000000" font-family="sans-serif" font-size="14" lengthAdjust="spacing" textLength="119" x="33.5" y="161.5352">LISTEN &amp; ACCEPT</text><text fill="#000000" font-family="sans-serif" font-size="14" lengthAdjust="spacing" textLength="67" x="59.5" y="178.0234">TCP:1000</text><!--MD5=[c712d510358a2039e8a07dd976d38c4f]
entity tcp1_read--><rect fill="#FEFECE" filter="url(#f14sl4mpms747k)" height="36.4883" style="stroke:#000000;stroke-width:1.5;" width="57" x="197.5" y="146.5"/><text fill="#000000" font-family="sans-serif" font-size="14" lengthAdjust="spacing" textLength="37" x="207.5" y="170.0352">READ</text><!--MD5=[60b47a0a41622ea10efc40cf515deac3]
entity tcp1_write--><rect fill="#FEFECE" filter="url(#f14sl4mpms747k)" height="36.4883" style="stroke:#000000;stroke-width:1.5;" width="62" x="193" y="259.5"/><text fill="#000000" font-family="sans-serif" font-size="14" lengthAdjust="spacing" textLength="42" x="203" y="283.0352">WRITE</text><!--MD5=[087926df8e44031b9f305deb2d6f470b]
entity uds1_send--><rect fill="#FEFECE" filter="url(#f14sl4mpms747k)" height="36.4883" style="stroke:#000000;stroke-width:1.5;" width="104" x="151" y="364"/><text fill="#000000" font-family="sans-serif" font-size="14" lengthAdjust="spacing" textLength="84" x="161" y="387.5352">UDS Send fd</text><!--MD5=[649bb6e80f4fbd92948633737a683cbf]
entity uds1_recv--><rect fill="#FEFECE" filter="url(#f14sl4mpms747k)" height="36.4883" style="stroke:#000000;stroke-width:1.5;" width="101" x="153.5" y="42"/><text fill="#000000" font-family="sans-serif" font-size="14" lengthAdjust="spacing" textLength="81" x="163.5" y="65.5352">UDS Recv fd</text><!--MD5=[82393735cbc219c3c090b0b281dda570]
entity tcp2_listen--><rect fill="#FEFECE" filter="url(#f14sl4mpms747k)" height="52.9766" style="stroke:#000000;stroke-width:1.5;" width="139" x="403.5" y="251"/><text fill="#000000" font-family="sans-serif" font-size="14" lengthAdjust="spacing" textLength="119" x="413.5" y="274.5352">LISTEN &amp; ACCEPT</text><text fill="#000000" font-family="sans-serif" font-size="14" lengthAdjust="spacing" textLength="67" x="439.5" y="291.0234">TCP:1001</text><!--MD5=[9e9999d74ec8bb54948d7d35da48a896]
entity tcp2_read--><rect fill="#FEFECE" filter="url(#f14sl4mpms747k)" height="36.4883" style="stroke:#000000;stroke-width:1.5;" width="57" x="311.5" y="259.5"/><text fill="#000000" font-family="sans-serif" font-size="14" lengthAdjust="spacing" textLength="37" x="321.5" y="283.0352">READ</text><!--MD5=[b12f48994c4873768159f8613b9324d0]
entity tcp2_write--><rect fill="#FEFECE" filter="url(#f14sl4mpms747k)" height="36.4883" style="stroke:#000000;stroke-width:1.5;" width="62" x="311" y="146.5"/><text fill="#000000" font-family="sans-serif" font-size="14" lengthAdjust="spacing" textLength="42" x="321" y="170.0352">WRITE</text><!--MD5=[e778c3312ae2e4bd95198cc6039f93da]
entity uds2_send--><rect fill="#FEFECE" filter="url(#f14sl4mpms747k)" height="36.4883" style="stroke:#000000;stroke-width:1.5;" width="104" x="311" y="42"/><text fill="#000000" font-family="sans-serif" font-size="14" lengthAdjust="spacing" textLength="84" x="321" y="65.5352">UDS Send fd</text><!--MD5=[84912ae2c3f9a4e1e46c67f7b75cd63b]
entity uds2_recv--><rect fill="#FEFECE" filter="url(#f14sl4mpms747k)" height="36.4883" style="stroke:#000000;stroke-width:1.5;" width="101" x="311.5" y="364"/><text fill="#000000" font-family="sans-serif" font-size="14" lengthAdjust="spacing" textLength="81" x="321.5" y="387.5352">UDS Recv fd</text><!--MD5=[5da49aadbcd8729025dfa852ea625a0a]
link tcp1_listen to tcp1_read--><path d="M162.61,164.5 C172.56,164.5 181.67,164.5 181.67,164.5 C181.67,164.5 185.96,164.5 191.88,164.5 " fill="none" id="tcp1_listen-to-tcp1_read" style="stroke:#A80036;stroke-width:1.0;"/><polygon fill="#A80036" points="197.17,164.5,188.17,160.5,192.17,164.5,188.17,168.5,197.17,164.5" style="stroke:#A80036;stroke-width:1.0;"/><!--MD5=[590533a06b4d540437eb528096a58d1d]
link tcp1_read to tcp1_write--><path d="M225.69,182.84 C225.34,202.07 224.78,233.13 224.4,254.16 " fill="none" id="tcp1_read-to-tcp1_write" style="stroke:#A80036;stroke-width:1.0;"/><polygon fill="#A80036" points="224.31,259.28,228.4637,250.3499,224.3957,254.2807,220.4649,250.2128,224.31,259.28" style="stroke:#A80036;stroke-width:1.0;"/><!--MD5=[6f2df6892f6438a31e1d2481319d98b5]
link tcp1_write to uds1_send--><path d="M220.44,295.89 C216.89,313.22 211.42,339.91 207.55,358.77 " fill="none" id="tcp1_write-to-uds1_send" style="stroke:#A80036;stroke-width:1.0;"/><polygon fill="#A80036" points="206.51,363.87,212.2289,355.8516,207.5098,358.971,204.3904,354.2519,206.51,363.87" style="stroke:#A80036;stroke-width:1.0;"/><!--MD5=[f42414dc77615e2024470a5f6679e11d]
link uds1_recv to tcp1_read--><path d="M207.73,78.39 C211.45,95.72 217.18,122.41 221.23,141.27 " fill="none" id="uds1_recv-to-tcp1_read" style="stroke:#A80036;stroke-width:1.0;"/><polygon fill="#A80036" points="222.32,146.37,224.3262,136.7276,221.2626,141.4831,216.5071,138.4195,222.32,146.37" style="stroke:#A80036;stroke-width:1.0;"/><!--MD5=[ad3fe1500537ec6bacdcc17cb00fbb42]
reverse link tcp2_read to tcp2_listen--><path d="M374.12,277.5 C380.04,277.5 384.33,277.5 384.33,277.5 C384.33,277.5 393.44,277.5 403.39,277.5 " fill="none" id="tcp2_read-backto-tcp2_listen" style="stroke:#A80036;stroke-width:1.0;"/><polygon fill="#A80036" points="368.83,277.5,377.83,281.5,373.83,277.5,377.83,273.5,368.83,277.5" style="stroke:#A80036;stroke-width:1.0;"/><!--MD5=[f7b0b34ed5ef621a23262a09a3214ae6]
reverse link tcp2_write to tcp2_read--><path d="M341.6,187.97 C341.22,209.05 340.66,240.1 340.31,259.28 " fill="none" id="tcp2_write-backto-tcp2_read" style="stroke:#A80036;stroke-width:1.0;"/><polygon fill="#A80036" points="341.69,182.84,337.5363,191.7701,341.6043,187.8393,345.5351,191.9072,341.69,182.84" style="stroke:#A80036;stroke-width:1.0;"/><!--MD5=[c5d7155faf48e4693a5fff6f5c8281ad]
reverse link uds2_send to tcp2_write--><path d="M358.39,83.51 C354.51,102.45 349.04,129.13 345.51,146.37 " fill="none" id="uds2_send-backto-tcp2_write" style="stroke:#A80036;stroke-width:1.0;"/><polygon fill="#A80036" points="359.44,78.39,353.6987,86.3924,358.4265,83.2862,361.5327,88.014,359.44,78.39" style="stroke:#A80036;stroke-width:1.0;"/><!--MD5=[3a17ad267b16ea8375be20d54011d74f]
reverse link tcp2_read to uds2_recv--><path d="M344.83,301.01 C348.9,319.95 354.62,346.63 358.32,363.87 " fill="none" id="tcp2_read-backto-uds2_recv" style="stroke:#A80036;stroke-width:1.0;"/><polygon fill="#A80036" points="343.73,295.89,341.6969,305.5267,344.7737,300.7798,349.5206,303.8567,343.73,295.89" style="stroke:#A80036;stroke-width:1.0;"/><!--MD5=[8241a67ae15b5d8bfe926ac06babe971]
link uds1_send to uds2_recv--><path d="M255.08,382 C255.68,382 256,382 256,382 C256,382 292.35,382 306.13,382 " fill="none" id="uds1_send-to-uds2_recv" style="stroke:#A80036;stroke-width:1.0;"/><polygon fill="#A80036" points="311.28,382,302.28,378,306.28,382,302.28,386,311.28,382" style="stroke:#A80036;stroke-width:1.0;"/><!--MD5=[a1c3fb99e850397caa153c74e7f4e814]
link tcp1_read to tcp2_write--><!--MD5=[009f09b4eedf3f93352451293380dc77]
reverse link tcp1_write to tcp2_read--><!--MD5=[97692f625b15ff2bfea322b769850f58]
reverse link uds1_recv to uds2_send--><path d="M259.87,60 C273.65,60 310,60 310,60 C310,60 310.32,60 310.92,60 " fill="none" id="uds1_recv-backto-uds2_send" style="stroke:#A80036;stroke-width:1.0;"/><polygon fill="#A80036" points="254.72,60,263.72,64,259.72,60,263.72,56,254.72,60" style="stroke:#A80036;stroke-width:1.0;"/><!--MD5=[6818bfbfd8eedc4accffdb14f572304b]
@startuml
skinparam sequenceMessageAlign center
skinparam DefaultTextAlignment center
skinparam linetype polyline

rectangle Server1{
rectangle "LISTEN & ACCEPT\nTCP:1000" as tcp1_listen
rectangle "READ" as tcp1_read
rectangle "WRITE" as tcp1_write
rectangle "UDS Send fd" as uds1_send
rectangle "UDS Recv fd" as uds1_recv
}

tcp1_listen-right->tcp1_read
tcp1_read-down->tcp1_write
tcp1_write-down->uds1_send
uds1_recv-down->tcp1_read

rectangle Server2{

rectangle "LISTEN & ACCEPT\nTCP:1001" as tcp2_listen
rectangle "READ" as tcp2_read
rectangle "WRITE" as tcp2_write
rectangle "UDS Send fd" as uds2_send
rectangle "UDS Recv fd" as uds2_recv

}

tcp2_listen-left->tcp2_read
tcp2_read-up->tcp2_write
tcp2_write-up->uds2_send
uds2_recv-up->tcp2_read

uds1_send-right- ->uds2_recv
tcp1_read-[hidden]right- - ->tcp2_write
tcp2_read-[hidden]left- - ->tcp1_write
uds2_send-left- ->uds1_recv



@enduml

PlantUML version 1.2022.0(Wed Jan 12 00:16:42 CST 2022)
(GPL source distribution)
Java Runtime: OpenJDK Runtime Environment
JVM: OpenJDK 64-Bit Server VM
Default Encoding: UTF-8
Language: zh
Country: CN
--></g></svg>